<svg width="406" height="150" viewBox="0 0 406 150" fill="none" xmlns="http://www.w3.org/2000/svg">
<path d="M75 0C33.5804 0 0 33.5804 0 75C0 116.42 33.5804 150 75 150C116.42 150 150 116.42 150 75C150 33.5804 116.404 0 75 0ZM52.1704 30.6527C59.4017 23.6455 68.9366 19.8699 78.9996 20.0139C89.0625 20.1738 98.4855 24.2374 105.493 31.4526L91.8622 44.6832C88.3906 41.0996 83.7191 39.0838 78.7116 39.0038C73.7201 38.9238 68.9846 40.7957 65.401 44.2833C57.9938 51.4665 57.8178 63.3372 65.0011 70.7445L79.4475 85.6389L65.817 98.8695L51.3705 83.975C36.8761 69.0486 37.244 45.1312 52.1704 30.6527ZM97.8136 119.331C90.5023 126.435 81.0314 129.954 71.5604 129.954C61.7054 129.954 51.8825 126.131 44.4913 118.515L58.1218 105.285C65.305 112.692 77.1758 112.868 84.583 105.685C88.1666 102.213 90.1824 97.5416 90.2624 92.5341C90.3424 87.5427 88.4706 82.8072 84.9829 79.2236L70.5365 64.3291L84.167 51.0986L98.6135 65.993C105.621 73.2242 109.412 82.7432 109.252 92.8221C109.108 102.917 105.045 112.324 97.8136 119.331Z" fill="#8873EF"/>
<path d="M195.96 83.2848L188.542 88.4428C189.835 91.1486 191.577 93.6572 193.769 95.9684C195.96 98.2797 198.517 100.14 201.44 101.549C204.418 102.902 207.65 103.579 211.134 103.579C213.663 103.579 216.08 103.156 218.384 102.31C220.744 101.521 222.852 100.394 224.706 98.9279C226.561 97.4059 228.022 95.5456 229.09 93.3471C230.158 91.1486 230.692 88.6683 230.692 85.9061C230.692 83.313 230.242 81.0581 229.343 79.1415C228.5 77.2248 227.348 75.5619 225.886 74.1526C224.425 72.6869 222.796 71.4749 220.997 70.5166C219.255 69.5583 217.513 68.7691 215.771 68.149C212.623 67.0215 210.066 65.9223 208.099 64.8512C206.132 63.7802 204.671 62.6527 203.716 61.4689C202.817 60.2288 202.367 58.8477 202.367 57.3256C202.367 55.6345 203.013 54.1688 204.306 52.9286C205.599 51.6321 207.622 50.9838 210.375 50.9838C212.342 50.9838 214.057 51.3784 215.518 52.1676C217.035 52.9004 218.356 53.9151 219.48 55.2117C220.604 56.4518 221.531 57.8048 222.262 59.2704L230.354 54.7043C229.343 52.6186 227.938 50.6174 226.139 48.7007C224.397 46.7841 222.234 45.2057 219.648 43.9655C217.063 42.7253 214.028 42.1053 210.544 42.1053C207.003 42.1053 203.828 42.7817 201.018 44.1346C198.264 45.4312 196.073 47.2915 194.443 49.7154C192.813 52.083 191.998 54.8453 191.998 58.0021C191.998 60.7643 192.532 63.1319 193.6 65.1049C194.668 67.0215 196.017 68.6563 197.646 70.0092C199.276 71.3058 200.99 72.405 202.789 73.307C204.587 74.1526 206.217 74.829 207.678 75.3364C210.151 76.2383 212.314 77.1685 214.169 78.1268C216.08 79.0287 217.569 80.1562 218.637 81.5091C219.705 82.8056 220.238 84.5531 220.238 86.7516C220.238 89.0629 219.395 90.9513 217.709 92.417C216.023 93.8827 213.832 94.6155 211.134 94.6155C208.886 94.6155 206.863 94.1645 205.065 93.2626C203.266 92.3043 201.608 90.9795 200.091 89.2884C198.63 87.5408 197.253 85.5397 195.96 83.2848Z" fill="#2C0941"/>
<path d="M234.325 63.4138L252.449 105.101L264.083 78.8032L276.222 105.101L294.346 63.4138H284.483L275.379 86.6671L263.998 60.4542L253.292 86.5825L244.188 63.4138H234.325Z" fill="#2C0941"/>
<path d="M299.818 47.9397C299.818 49.4618 300.38 50.7865 301.504 51.9139C302.684 52.985 304.033 53.5205 305.55 53.5205C307.18 53.5205 308.529 52.985 309.597 51.9139C310.721 50.7865 311.283 49.4618 311.283 47.9397C311.283 46.3613 310.721 45.0366 309.597 43.9655C308.529 42.8945 307.18 42.3589 305.55 42.3589C304.033 42.3589 302.684 42.8945 301.504 43.9655C300.38 45.0366 299.818 46.3613 299.818 47.9397ZM301.083 63.4138V102.31H310.018V63.4138H301.083Z" fill="#2C0941"/>
<path d="M331.399 120.913V63.4138H322.21V120.913H331.399ZM363.517 82.862C363.517 78.5214 362.645 74.829 360.903 71.785C359.161 68.7409 356.857 66.4296 353.991 64.8512C351.125 63.2165 348.005 62.3991 344.634 62.3991C341.318 62.3991 338.424 63.2446 335.951 64.9358C333.534 66.5706 331.651 68.91 330.303 71.9541C329.01 74.9981 328.364 78.6341 328.364 82.862C328.364 87.0335 329.01 90.6695 330.303 93.7699C331.651 96.814 333.534 99.1816 335.951 100.873C338.424 102.508 341.318 103.325 344.634 103.325C348.005 103.325 351.125 102.536 353.991 100.957C356.857 99.3225 359.161 96.9831 360.903 93.939C362.645 90.8386 363.517 87.1462 363.517 82.862ZM354.075 82.862C354.075 85.4551 353.541 87.6818 352.473 89.542C351.406 91.3459 349.972 92.727 348.174 93.6854C346.432 94.5873 344.493 95.0383 342.357 95.0383C340.615 95.0383 338.901 94.5873 337.215 93.6854C335.529 92.727 334.124 91.3459 333 89.542C331.932 87.7381 331.399 85.5115 331.399 82.862C331.399 80.2125 331.932 77.9858 333 76.1819C334.124 74.3781 335.529 73.0251 337.215 72.1232C338.901 71.1649 340.615 70.6857 342.357 70.6857C344.493 70.6857 346.432 71.1649 348.174 72.1232C349.972 73.0251 351.406 74.4062 352.473 76.2665C353.541 78.0704 354.075 80.2689 354.075 82.862Z" fill="#2C0941"/>
<path d="M405.263 63.4138H395.484L383.345 93.939L387.644 94.1927L375.253 63.4138H364.799L380.395 97.7441L370.279 120.913H379.973L405.263 63.4138Z" fill="#2C0941"/>
</svg>
